<svg width="380" height="35" viewBox="0 0 380 35" fill="none" xmlns="http://www.w3.org/2000/svg">
<path d="M369.838 4.112H361.918V2.636H379.378V4.112H371.458V26H369.838V4.112Z" fill="black"/>
<path d="M352.905 3.64399C351.609 3.64399 350.553 3.95599 349.737 4.57999C348.921 5.20399 348.513 6.07999 348.513 7.20799C348.513 8.50399 349.053 9.66799 350.133 10.7C350.901 11.444 351.885 12.236 353.085 13.076C354.309 13.892 355.149 14.48 355.605 14.84C356.061 15.2 356.613 15.692 357.261 16.316C358.437 17.492 359.025 18.848 359.025 20.384C359.025 22.376 358.353 23.888 357.009 24.92C355.689 25.928 353.829 26.432 351.429 26.432C349.053 26.432 347.061 25.808 345.453 24.56L346.317 23.3C347.949 24.404 349.677 24.956 351.501 24.956C353.325 24.956 354.741 24.572 355.749 23.804C356.781 23.036 357.297 21.956 357.297 20.564C357.297 19.364 356.781 18.26 355.749 17.252C355.029 16.532 354.057 15.752 352.833 14.912C351.633 14.072 350.793 13.472 350.313 13.112C349.833 12.728 349.269 12.224 348.621 11.6C347.397 10.376 346.785 8.95999 346.785 7.35199C346.785 5.74399 347.349 4.48399 348.477 3.57199C349.629 2.65999 351.213 2.20399 353.229 2.20399C355.245 2.20399 357.057 2.59999 358.665 3.39199L358.053 4.72399C356.565 4.00399 354.849 3.64399 352.905 3.64399Z" fill="black"/>
<path d="M337.888 26V2.636H339.544V26H337.888Z" fill="black"/>
<path d="M323.467 4.112H315.547V2.636H333.007V4.112H325.087V26H323.467V4.112Z" fill="black"/>
<path d="M299.076 26V2.74401C301.14 2.576 302.892 2.492 304.332 2.492C306.54 2.492 308.364 3.06801 309.804 4.22001C311.244 5.34801 311.964 6.96801 311.964 9.08001C311.964 10.496 311.556 11.804 310.74 13.004C309.924 14.204 309 15.176 307.968 15.92C310.824 19.712 312.588 21.98 313.26 22.724C314.628 24.14 316.116 24.944 317.724 25.136L317.688 26.252C316.344 26.228 315.252 26.036 314.412 25.676C313.572 25.292 312.732 24.656 311.892 23.768C311.076 22.88 309.264 20.492 306.456 16.604C304.512 16.604 302.604 16.544 300.732 16.424V26H299.076ZM305.556 15.236C306.492 15.236 307.5 14.612 308.58 13.364C309.66 12.116 310.2 10.664 310.2 9.00801C310.2 7.35201 309.636 6.09201 308.508 5.22801C307.38 4.36401 305.916 3.93201 304.116 3.93201C303.156 3.93201 302.028 3.98001 300.732 4.07601V15.056C302.46 15.176 304.068 15.236 305.556 15.236Z" fill="black"/>
<path d="M277.005 17.072L273.297 26H271.461L282.297 0.0800018H283.305L294.177 26H292.233L288.525 17.072H277.005ZM282.693 2.96C282.669 2.984 282.621 3.128 282.549 3.392C282.213 4.424 281.889 5.3 281.577 6.02L277.617 15.596H287.913L283.953 6.056C283.113 4.232 282.693 3.2 282.693 2.96Z" fill="black"/>
<path d="M240.33 26V2.74401C242.394 2.576 244.146 2.492 245.586 2.492C247.794 2.492 249.618 3.06801 251.058 4.22001C252.498 5.34801 253.218 6.96801 253.218 9.08001C253.218 10.496 252.81 11.804 251.994 13.004C251.178 14.204 250.254 15.176 249.222 15.92C252.078 19.712 253.842 21.98 254.514 22.724C255.882 24.14 257.37 24.944 258.978 25.136L258.942 26.252C257.598 26.228 256.506 26.036 255.666 25.676C254.826 25.292 253.986 24.656 253.146 23.768C252.33 22.88 250.518 20.492 247.71 16.604C245.766 16.604 243.858 16.544 241.986 16.424V26H240.33ZM246.81 15.236C247.746 15.236 248.754 14.612 249.834 13.364C250.914 12.116 251.454 10.664 251.454 9.00801C251.454 7.35201 250.89 6.09201 249.762 5.22801C248.634 4.36401 247.17 3.93201 245.37 3.93201C244.41 3.93201 243.282 3.98001 241.986 4.07601V15.056C243.714 15.176 245.322 15.236 246.81 15.236Z" fill="black"/>
<path d="M222.435 26V2.636H233.343V4.076H224.091V12.572H232.443V13.976H224.091V24.488H233.703V26H222.435Z" fill="black"/>
<path d="M201.798 2.744C203.502 2.6 205.254 2.528 207.054 2.528C208.854 2.528 210.39 2.96 211.662 3.824C212.958 4.688 213.606 5.948 213.606 7.604C213.606 8.852 213.27 10.004 212.598 11.06C211.926 12.116 211.11 12.92 210.15 13.472C211.71 13.928 213.006 14.744 214.038 15.92C215.07 17.096 215.586 18.428 215.586 19.916C215.586 21.98 214.926 23.54 213.606 24.596C212.31 25.652 210.474 26.18 208.098 26.18C205.722 26.18 203.622 26.096 201.798 25.928V2.744ZM205.074 14.192L203.454 14.228V24.56C204.486 24.656 206.154 24.704 208.458 24.704C210.018 24.704 211.302 24.272 212.31 23.408C213.342 22.52 213.858 21.416 213.858 20.096C213.858 18.752 213.342 17.588 212.31 16.604C211.302 15.596 209.982 14.888 208.35 14.48C207.51 14.288 206.418 14.192 205.074 14.192ZM211.986 7.568C211.986 6.392 211.494 5.492 210.51 4.868C209.526 4.22 208.35 3.896 206.982 3.896C205.614 3.896 204.438 3.932 203.454 4.004V12.824C205.542 12.824 207.21 12.884 208.458 13.004C209.394 12.5 210.21 11.768 210.906 10.808C211.626 9.824 211.986 8.744 211.986 7.568Z" fill="black"/>
<path d="M179.931 26V2.74401C181.995 2.576 183.747 2.492 185.187 2.492C187.395 2.492 189.219 3.06801 190.659 4.22001C192.099 5.34801 192.819 6.96801 192.819 9.08001C192.819 10.496 192.411 11.804 191.595 13.004C190.779 14.204 189.855 15.176 188.823 15.92C191.679 19.712 193.443 21.98 194.115 22.724C195.483 24.14 196.971 24.944 198.579 25.136L198.543 26.252C197.199 26.228 196.107 26.036 195.267 25.676C194.427 25.292 193.587 24.656 192.747 23.768C191.931 22.88 190.119 20.492 187.311 16.604C185.367 16.604 183.459 16.544 181.587 16.424V26H179.931ZM186.411 15.236C187.347 15.236 188.355 14.612 189.435 13.364C190.515 12.116 191.055 10.664 191.055 9.00801C191.055 7.35201 190.491 6.09201 189.363 5.22801C188.235 4.36401 186.771 3.93201 184.971 3.93201C184.011 3.93201 182.883 3.98001 181.587 4.07601V15.056C183.315 15.176 184.923 15.236 186.411 15.236Z" fill="black"/>
<path d="M159.603 17.9L156.255 26H154.563L164.355 2.492H165.327L175.191 26H173.355L169.971 17.9H159.603ZM164.751 5.156C164.391 6.23601 164.067 7.13601 163.779 7.85601L160.179 16.496H169.395L165.831 7.89201C165.279 6.54801 164.919 5.63601 164.751 5.156Z" fill="black"/>
<path d="M136.242 0.331997C138.114 0.187997 140.022 0.115997 141.966 0.115997C143.934 0.115997 145.626 0.595998 147.042 1.556C148.482 2.516 149.202 3.908 149.202 5.732C149.202 7.1 148.818 8.372 148.05 9.548C147.306 10.724 146.406 11.612 145.35 12.212C147.054 12.74 148.482 13.652 149.634 14.948C150.786 16.244 151.362 17.696 151.362 19.304C151.362 21.56 150.642 23.276 149.202 24.452C147.786 25.628 145.83 26.216 143.334 26.216C140.862 26.216 138.498 26.12 136.242 25.928V0.331997ZM143.55 24.668C145.302 24.668 146.742 24.188 147.87 23.228C148.998 22.244 149.562 20.996 149.562 19.484C149.562 17.972 149.01 16.664 147.906 15.56C146.826 14.456 145.338 13.7 143.442 13.292C142.554 13.1 141.522 13.004 140.346 13.004C139.194 13.004 138.402 13.004 137.97 13.004V24.488C139.026 24.608 140.886 24.668 143.55 24.668ZM147.474 5.696C147.474 4.376 146.922 3.356 145.818 2.636C144.738 1.916 143.514 1.556 142.146 1.556C140.802 1.556 139.41 1.604 137.97 1.7V11.528C138.282 11.528 138.87 11.528 139.734 11.528C140.598 11.528 141.87 11.6 143.55 11.744C144.63 11.168 145.554 10.34 146.322 9.26C147.09 8.18 147.474 6.992 147.474 5.696Z" fill="black"/>
<path d="M109.28 26H107.66V17.648L98.8402 2.636H100.82L107.624 14.228C108.152 15.284 108.452 15.848 108.524 15.92C108.668 15.608 108.968 15.056 109.424 14.264L116.228 2.636H118.1L109.28 17.72V26Z" fill="black"/>
<path d="M74.111 26V2.492H74.903L90.239 20.132C90.791 20.756 91.295 21.38 91.751 22.004C92.231 22.604 92.483 22.916 92.507 22.94C92.459 22.364 92.435 21.236 92.435 19.556V2.636H94.091V26.144H93.299L77.675 8.21601L75.695 5.804C75.743 6.28401 75.767 7.41201 75.767 9.18801V26H74.111Z" fill="black"/>
<path d="M55.1227 26.36C51.7867 26.36 48.9907 25.196 46.7347 22.868C44.4787 20.54 43.3507 17.696 43.3507 14.336C43.3507 10.952 44.4787 8.096 46.7347 5.768C48.9907 3.44 51.7867 2.276 55.1227 2.276C58.4587 2.276 61.2547 3.44 63.5107 5.768C65.7667 8.096 66.8947 10.952 66.8947 14.336C66.8947 17.696 65.7667 20.54 63.5107 22.868C61.2547 25.196 58.4587 26.36 55.1227 26.36ZM55.1227 3.752C52.2427 3.752 49.8427 4.772 47.9227 6.812C46.0267 8.852 45.0787 11.36 45.0787 14.336C45.0787 17.288 46.0267 19.784 47.9227 21.824C49.8427 23.84 52.2427 24.848 55.1227 24.848C58.0267 24.848 60.4267 23.84 62.3227 21.824C64.2187 19.784 65.1667 17.288 65.1667 14.336C65.1667 11.36 64.2187 8.852 62.3227 6.812C60.4267 4.772 58.0267 3.752 55.1227 3.752Z" fill="black"/>
<path d="M34.4874 26V14.192H18.2514V26H16.5954V2.636H18.2514V12.716H34.4874V2.636H36.1434V26H34.4874Z" fill="black"/>
<path d="M5.81255 23.12V0.259995H7.54055V21.968C7.54055 25.184 6.86855 27.752 5.52455 29.672C4.85255 30.656 4.16855 31.472 3.47255 32.12C2.77655 32.792 1.92455 33.488 0.916553 34.208L0.160553 33.092C3.92855 30.332 5.81255 27.008 5.81255 23.12Z" fill="black"/>
</svg>
