<svg width="324" height="34" viewBox="0 0 324 34" fill="none" xmlns="http://www.w3.org/2000/svg">
<path d="M6.8 23.32C6.8 25.3467 6.64 26.9733 6.32 28.2C6 29.4267 5.46667 30.4133 4.72 31.16C3.97333 31.9333 2.90667 32.6267 1.52 33.24L1.48 33.28C1.42667 33.28 1.36 33.2133 1.28 33.08C1.22667 32.9467 1.22667 32.8667 1.28 32.84C2.53333 32.1733 3.41333 31.1467 3.92 29.76C4.42667 28.4 4.68 26.6133 4.68 24.4V4.24C4.68 3.44 4.58667 2.85333 4.4 2.48C4.21333 2.10667 3.86667 1.85333 3.36 1.72C2.85333 1.56 2.08 1.48 1.04 1.48C0.986667 1.48 0.96 1.4 0.96 1.24C0.96 1.08 0.986667 1 1.04 1L3.12 1.04C4.18667 1.09333 5.04 1.12 5.68 1.12C6.34667 1.12 7.18667 1.09333 8.2 1.04L9.92 1C9.97333 1 10 1.08 10 1.24C10 1.4 9.97333 1.48 9.92 1.48C9.01333 1.48 8.33333 1.56 7.88 1.72C7.45333 1.88 7.16 2.16 7 2.56C6.86667 2.93333 6.8 3.52 6.8 4.32V23.32ZM34.7763 4.32C34.7763 3.52 34.6829 2.93333 34.4963 2.56C34.3363 2.16 34.0029 1.88 33.4963 1.72C33.0162 1.56 32.2563 1.48 31.2163 1.48C31.1363 1.48 31.0963 1.4 31.0963 1.24C31.0963 1.08 31.1363 1 31.2163 1L33.0963 1.04C34.2163 1.09333 35.1363 1.12 35.8563 1.12C36.5229 1.12 37.4163 1.09333 38.5363 1.04L40.4563 1C40.5363 1 40.5763 1.08 40.5763 1.24C40.5763 1.4 40.5363 1.48 40.4563 1.48C39.4163 1.48 38.6429 1.56 38.1363 1.72C37.6563 1.85333 37.3229 2.10667 37.1363 2.48C36.9496 2.85333 36.8563 3.44 36.8563 4.24V22.76C36.8563 23.56 36.9496 24.16 37.1363 24.56C37.3229 24.9333 37.6563 25.1867 38.1363 25.32C38.6429 25.4533 39.4163 25.52 40.4563 25.52C40.5363 25.52 40.5763 25.6 40.5763 25.76C40.5763 25.92 40.5363 26 40.4563 26C39.6296 26 38.9896 25.9867 38.5363 25.96L35.8563 25.92L33.0963 25.96C32.6429 25.9867 32.0163 26 31.2163 26C31.1363 26 31.0963 25.92 31.0963 25.76C31.0963 25.6 31.1363 25.52 31.2163 25.52C32.2829 25.52 33.0563 25.4533 33.5363 25.32C34.0163 25.1867 34.3363 24.9333 34.4963 24.56C34.6829 24.1867 34.7763 23.5867 34.7763 22.76V4.32ZM17.6563 12.6H35.6563V13.36H17.6563V12.6ZM16.6963 4.24C16.6963 3.44 16.6029 2.85333 16.4163 2.48C16.2563 2.10667 15.9229 1.85333 15.4163 1.72C14.9363 1.56 14.1763 1.48 13.1363 1.48C13.0829 1.48 13.0563 1.4 13.0563 1.24C13.0563 1.08 13.0829 1 13.1363 1L15.0963 1.04C16.2163 1.09333 17.0963 1.12 17.7363 1.12C18.4563 1.12 19.3763 1.09333 20.4963 1.04L22.3763 1C22.4296 1 22.4563 1.08 22.4563 1.24C22.4563 1.4 22.4296 1.48 22.3763 1.48C21.3363 1.48 20.5629 1.56 20.0563 1.72C19.5763 1.88 19.2429 2.16 19.0563 2.56C18.8963 2.93333 18.8163 3.52 18.8163 4.32V22.76C18.8163 23.5867 18.8963 24.1867 19.0563 24.56C19.2429 24.9333 19.5763 25.1867 20.0563 25.32C20.5363 25.4533 21.3096 25.52 22.3763 25.52C22.4296 25.52 22.4563 25.6 22.4563 25.76C22.4563 25.92 22.4296 26 22.3763 26C21.5763 26 20.9363 25.9867 20.4563 25.96L17.7363 25.92L15.0963 25.96C14.6163 25.9867 13.9496 26 13.0963 26C13.0429 26 13.0163 25.92 13.0163 25.76C13.0163 25.6 13.0429 25.52 13.0963 25.52C14.1363 25.52 14.8963 25.4533 15.3763 25.32C15.8829 25.1867 16.2296 24.9333 16.4163 24.56C16.6029 24.16 16.6963 23.56 16.6963 22.76V4.24ZM56.6088 26.48C54.1288 26.48 51.9154 25.9067 49.9688 24.76C48.0488 23.5867 46.5554 22.0133 45.4888 20.04C44.4488 18.04 43.9288 15.8667 43.9288 13.52C43.9288 10.7733 44.6221 8.42667 46.0088 6.48C47.3954 4.50667 49.1688 3.02667 51.3288 2.04C53.5154 1.05333 55.7421 0.559999 58.0088 0.559999C60.5421 0.559999 62.7688 1.16 64.6888 2.36C66.6088 3.53333 68.0754 5.09333 69.0888 7.04C70.1288 8.98667 70.6488 11.0533 70.6488 13.24C70.6488 15.6667 70.0088 17.8933 68.7288 19.92C67.4488 21.9467 65.7288 23.5467 63.5688 24.72C61.4354 25.8933 59.1154 26.48 56.6088 26.48ZM58.0488 25.68C59.9421 25.68 61.6488 25.24 63.1688 24.36C64.6888 23.48 65.8888 22.1867 66.7688 20.48C67.6488 18.7733 68.0888 16.7333 68.0888 14.36C68.0888 11.8533 67.5954 9.62667 66.6088 7.68C65.6488 5.70667 64.2754 4.17333 62.4888 3.08C60.7288 1.98667 58.6754 1.44 56.3288 1.44C53.2354 1.44 50.8221 2.4 49.0888 4.32C47.3554 6.24 46.4888 8.85333 46.4888 12.16C46.4888 14.64 46.9688 16.92 47.9288 19C48.9154 21.0533 50.2888 22.68 52.0488 23.88C53.8088 25.08 55.8088 25.68 58.0488 25.68ZM77.3138 1.92L78.1938 2V21.84C78.1938 23.2 78.4204 24.16 78.8738 24.72C79.3271 25.2533 80.1138 25.52 81.2338 25.52C81.3138 25.52 81.3538 25.6 81.3538 25.76C81.3538 25.92 81.3138 26 81.2338 26C80.5938 26 80.1004 25.9867 79.7538 25.96L77.8338 25.92L75.8738 25.96C75.5271 25.9867 75.0071 26 74.3138 26C74.2604 26 74.2338 25.92 74.2338 25.76C74.2338 25.6 74.2604 25.52 74.3138 25.52C75.4604 25.52 76.2471 25.2533 76.6738 24.72C77.1004 24.1867 77.3138 23.2267 77.3138 21.84V1.92ZM97.4338 26.44C97.4338 26.4933 97.3671 26.5333 97.2338 26.56C97.1004 26.5867 97.0071 26.5733 96.9538 26.52L78.8738 4.28C78.0204 3.24 77.2338 2.52 76.5138 2.12C75.8204 1.69333 75.1271 1.48 74.4338 1.48C74.3538 1.48 74.3138 1.4 74.3138 1.24C74.3138 1.08 74.3538 1 74.4338 1L75.8738 1.04C76.1671 1.06667 76.5804 1.08 77.1138 1.08C77.5671 1.08 77.9404 1.06667 78.2338 1.04C78.5271 1.01333 78.7538 1 78.9138 1C79.1004 1 79.2471 1.05333 79.3538 1.16C79.4871 1.24 79.6338 1.42667 79.7938 1.72C80.0871 2.2 80.4071 2.65333 80.7538 3.08L97.1138 23.4L97.4338 26.44ZM97.4338 26.44L96.5538 25.2V5.2C96.5538 3.84 96.3404 2.88 95.9138 2.32C95.4871 1.76 94.7138 1.48 93.5938 1.48C93.5404 1.48 93.5138 1.4 93.5138 1.24C93.5138 1.08 93.5404 1 93.5938 1L95.1138 1.04C95.9138 1.09333 96.5538 1.12 97.0338 1.12C97.4871 1.12 98.1404 1.09333 98.9938 1.04L100.554 1C100.634 1 100.674 1.08 100.674 1.24C100.674 1.4 100.634 1.48 100.554 1.48C99.4071 1.48 98.5938 1.76 98.1138 2.32C97.6604 2.88 97.4338 3.84 97.4338 5.2V26.44ZM119.698 4.96C120.285 4 120.578 3.26667 120.578 2.76C120.578 1.90667 119.858 1.48 118.418 1.48C118.365 1.48 118.338 1.4 118.338 1.24C118.338 1.08 118.365 1 118.418 1L120.218 1.04C121.231 1.09333 122.125 1.12 122.898 1.12C123.351 1.12 123.898 1.09333 124.538 1.04L126.018 1C126.071 1 126.098 1.08 126.098 1.24C126.098 1.4 126.071 1.48 126.018 1.48C125.031 1.48 124.071 1.8 123.138 2.44C122.205 3.05333 121.365 3.93333 120.618 5.08L114.098 14.96L113.458 14.4L119.698 4.96ZM106.018 4.32C105.325 3.28 104.645 2.54667 103.978 2.12C103.311 1.69333 102.485 1.48 101.498 1.48C101.418 1.48 101.378 1.4 101.378 1.24C101.378 1.08 101.418 1 101.498 1L102.978 1.04C103.618 1.09333 104.098 1.12 104.418 1.12C105.298 1.12 106.378 1.09333 107.658 1.04L109.738 1C109.791 1 109.818 1.08 109.818 1.24C109.818 1.4 109.791 1.48 109.738 1.48C108.938 1.48 108.351 1.54667 107.978 1.68C107.631 1.78667 107.458 1.97333 107.458 2.24C107.458 2.4 107.591 2.68 107.858 3.08L114.978 13.32L113.498 15.16L106.018 4.32ZM114.978 13.24V22.76C114.978 23.5867 115.058 24.1867 115.218 24.56C115.378 24.9333 115.698 25.1867 116.178 25.32C116.658 25.4533 117.431 25.52 118.498 25.52C118.578 25.52 118.618 25.6 118.618 25.76C118.618 25.92 118.578 26 118.498 26C117.698 26 117.071 25.9867 116.618 25.96L113.898 25.92L111.178 25.96C110.698 25.9867 110.058 26 109.258 26C109.178 26 109.138 25.92 109.138 25.76C109.138 25.6 109.178 25.52 109.258 25.52C110.298 25.52 111.058 25.4533 111.538 25.32C112.045 25.1867 112.391 24.9333 112.578 24.56C112.765 24.16 112.858 23.56 112.858 22.76V13.6L114.978 13.24ZM151.53 0.559999C153.29 0.559999 154.73 0.693332 155.85 0.959998C156.97 1.2 158.157 1.64 159.41 2.28C159.57 2.38666 159.663 2.48 159.69 2.56C159.743 2.61333 159.783 2.81333 159.81 3.16L160.29 7.72C160.29 7.8 160.21 7.85333 160.05 7.88C159.917 7.88 159.837 7.84 159.81 7.76C159.223 5.54667 158.25 3.89333 156.89 2.8C155.53 1.68 153.743 1.12 151.53 1.12C149.183 1.12 147.117 1.61333 145.33 2.6C143.57 3.58667 142.197 5 141.21 6.84C140.25 8.65333 139.77 10.7733 139.77 13.2C139.77 15.4667 140.303 17.5867 141.37 19.56C142.463 21.5067 143.917 23.0667 145.73 24.24C147.57 25.3867 149.53 25.96 151.61 25.96C156.037 25.96 158.863 23.7867 160.09 19.44C160.09 19.3867 160.157 19.36 160.29 19.36C160.477 19.36 160.57 19.4 160.57 19.48L160.25 23.72C160.223 24.04 160.183 24.24 160.13 24.32C160.077 24.4 159.97 24.4933 159.81 24.6C158.423 25.32 157.117 25.8133 155.89 26.08C154.69 26.3733 153.25 26.52 151.57 26.52C148.797 26.52 146.317 25.9733 144.13 24.88C141.97 23.76 140.277 22.2 139.05 20.2C137.823 18.1733 137.21 15.8533 137.21 13.24C137.21 10.7333 137.823 8.52 139.05 6.6C140.277 4.68 141.97 3.2 144.13 2.16C146.317 1.09333 148.783 0.559999 151.53 0.559999ZM171.071 13.8H181.431L181.711 14.52H170.711L171.071 13.8ZM190.471 25.52C190.578 25.52 190.631 25.6 190.631 25.76C190.631 25.92 190.578 26 190.471 26C189.991 26 189.218 25.9733 188.151 25.92C187.138 25.8667 186.391 25.84 185.911 25.84C185.351 25.84 184.618 25.8667 183.711 25.92C182.858 25.9733 182.218 26 181.791 26C181.684 26 181.631 25.92 181.631 25.76C181.631 25.6 181.684 25.52 181.791 25.52C182.884 25.52 183.671 25.4267 184.151 25.24C184.631 25.0267 184.871 24.68 184.871 24.2C184.871 23.8267 184.724 23.3067 184.431 22.64L175.391 3.2L176.151 2.52L168.431 21.08C168.058 21.9867 167.871 22.7333 167.871 23.32C167.871 24.0933 168.191 24.6533 168.831 25C169.471 25.3467 170.471 25.52 171.831 25.52C171.964 25.52 172.031 25.6 172.031 25.76C172.031 25.92 171.964 26 171.831 26C171.351 26 170.658 25.9733 169.751 25.92C168.738 25.8667 167.858 25.84 167.111 25.84C166.444 25.84 165.658 25.8667 164.751 25.92C163.951 25.9733 163.298 26 162.791 26C162.658 26 162.591 25.92 162.591 25.76C162.591 25.6 162.658 25.52 162.791 25.52C163.538 25.52 164.164 25.3867 164.671 25.12C165.204 24.8533 165.698 24.3733 166.151 23.68C166.631 22.9867 167.138 22 167.671 20.72L176.031 0.599998C176.084 0.519999 176.164 0.48 176.271 0.48C176.404 0.48 176.484 0.519999 176.511 0.599998L185.791 20.52C186.404 21.88 186.951 22.92 187.431 23.64C187.911 24.3333 188.378 24.8267 188.831 25.12C189.311 25.3867 189.858 25.52 190.471 25.52ZM196.161 5.84C196.161 6.90667 196.414 7.82667 196.921 8.6C197.427 9.37333 198.041 10.0267 198.761 10.56C199.507 11.0667 200.534 11.7067 201.841 12.48C203.227 13.3067 204.294 14 205.041 14.56C205.814 15.0933 206.467 15.7867 207.001 16.64C207.561 17.4933 207.841 18.52 207.841 19.72C207.841 20.9733 207.534 22.12 206.921 23.16C206.307 24.1733 205.387 24.9867 204.161 25.6C202.961 26.1867 201.481 26.48 199.721 26.48C198.787 26.48 197.894 26.3733 197.041 26.16C196.214 25.9733 195.294 25.6267 194.281 25.12C194.147 25.04 194.054 24.9467 194.001 24.84C193.974 24.7333 193.947 24.5733 193.921 24.36L193.321 19.16V19.12C193.321 19.0133 193.387 18.96 193.521 18.96C193.654 18.9333 193.734 18.9733 193.761 19.08C194.027 20.92 194.734 22.52 195.881 23.88C197.027 25.24 198.601 25.92 200.601 25.92C202.014 25.92 203.201 25.5333 204.161 24.76C205.147 23.9867 205.641 22.7733 205.641 21.12C205.641 19.92 205.374 18.8933 204.841 18.04C204.307 17.16 203.654 16.44 202.881 15.88C202.134 15.2933 201.107 14.6133 199.801 13.84C198.521 13.0933 197.507 12.44 196.761 11.88C196.041 11.32 195.414 10.6267 194.881 9.8C194.374 8.94667 194.121 7.93333 194.121 6.76C194.121 5.42667 194.454 4.29333 195.121 3.36C195.814 2.42667 196.707 1.73333 197.801 1.28C198.894 0.799999 200.067 0.559999 201.321 0.559999C202.787 0.559999 204.307 0.879998 205.881 1.52C206.281 1.68 206.481 1.90667 206.481 2.2L206.841 6.44C206.841 6.54667 206.761 6.6 206.601 6.6C206.467 6.6 206.387 6.54667 206.361 6.44C206.254 5.05333 205.734 3.81333 204.801 2.72C203.867 1.62667 202.534 1.08 200.801 1.08C199.201 1.08 198.027 1.54667 197.281 2.48C196.534 3.41333 196.161 4.53333 196.161 5.84ZM217.735 22.76C217.735 23.5867 217.815 24.1867 217.975 24.56C218.161 24.9333 218.495 25.1867 218.975 25.32C219.455 25.4533 220.228 25.52 221.295 25.52C221.348 25.52 221.375 25.6 221.375 25.76C221.375 25.92 221.348 26 221.295 26C220.495 26 219.868 25.9867 219.415 25.96L216.615 25.92L213.935 25.96C213.455 25.9867 212.801 26 211.975 26C211.895 26 211.855 25.92 211.855 25.76C211.855 25.6 211.895 25.52 211.975 25.52C213.015 25.52 213.775 25.4533 214.255 25.32C214.761 25.1867 215.108 24.9333 215.295 24.56C215.481 24.16 215.575 23.56 215.575 22.76V4.24C215.575 3.44 215.481 2.85333 215.295 2.48C215.108 2.10667 214.761 1.85333 214.255 1.72C213.775 1.56 213.015 1.48 211.975 1.48C211.895 1.48 211.855 1.4 211.855 1.24C211.855 1.08 211.895 1 211.975 1L213.935 1.04C215.055 1.09333 215.948 1.12 216.615 1.12C217.361 1.12 218.295 1.09333 219.415 1.04L221.295 1C221.348 1 221.375 1.08 221.375 1.24C221.375 1.4 221.348 1.48 221.295 1.48C220.255 1.48 219.481 1.56 218.975 1.72C218.495 1.88 218.161 2.16 217.975 2.56C217.815 2.93333 217.735 3.52 217.735 4.32V22.76ZM225.018 26C224.964 26 224.938 25.92 224.938 25.76C224.938 25.6 224.964 25.52 225.018 25.52C226.058 25.52 226.818 25.4533 227.298 25.32C227.804 25.1867 228.138 24.9333 228.298 24.56C228.484 24.16 228.578 23.56 228.578 22.76V4.24C228.578 3.44 228.484 2.85333 228.298 2.48C228.138 2.10667 227.804 1.85333 227.298 1.72C226.818 1.56 226.058 1.48 225.018 1.48C224.964 1.48 224.938 1.4 224.938 1.24C224.938 1.08 224.964 1 225.018 1H240.858C241.098 1 241.218 1.12 241.218 1.36L241.298 6.2C241.298 6.28 241.218 6.32 241.058 6.32C240.924 6.32 240.858 6.28 240.858 6.2C240.858 4.84 240.498 3.76 239.778 2.96C239.058 2.16 238.111 1.76 236.938 1.76H234.178C233.164 1.76 232.418 1.82667 231.938 1.96C231.458 2.09333 231.124 2.34667 230.938 2.72C230.778 3.09333 230.698 3.68 230.698 4.48V22.6C230.698 23.3733 230.778 23.9467 230.938 24.32C231.124 24.6667 231.444 24.9067 231.898 25.04C232.378 25.1733 233.138 25.24 234.178 25.24H237.858C238.924 25.24 239.831 24.7733 240.578 23.84C241.351 22.9067 241.844 21.68 242.058 20.16C242.058 20.08 242.138 20.0533 242.298 20.08C242.458 20.08 242.538 20.12 242.538 20.2C242.298 21.88 242.178 23.6133 242.178 25.4C242.178 25.6133 242.124 25.7733 242.018 25.88C241.938 25.96 241.778 26 241.538 26H225.018ZM239.298 16.6C239.298 15.4 239.044 14.56 238.538 14.08C238.031 13.6 237.138 13.36 235.858 13.36H229.698V12.6H235.978C237.204 12.6 238.058 12.4 238.538 12C239.018 11.5733 239.258 10.8533 239.258 9.84C239.258 9.78667 239.338 9.76 239.498 9.76C239.658 9.76 239.738 9.78667 239.738 9.84L239.698 13C239.698 13.7733 239.711 14.3467 239.738 14.72L239.778 16.6C239.778 16.6533 239.698 16.68 239.538 16.68C239.378 16.68 239.298 16.6533 239.298 16.6ZM263.946 26C263.466 26 262.546 24.8133 261.186 22.44C259.826 20.04 258.279 16.92 256.546 13.08L258.466 12.44C260.039 15.8 261.359 18.4 262.426 20.24C263.493 22.0533 264.506 23.3867 265.466 24.24C266.426 25.0933 267.466 25.52 268.586 25.52C268.666 25.52 268.706 25.6 268.706 25.76C268.706 25.92 268.666 26 268.586 26H263.946ZM256.786 0.879999C258.786 0.879999 260.333 1.37333 261.426 2.36C262.546 3.32 263.106 4.6 263.106 6.2C263.106 7.58667 262.693 8.86667 261.866 10.04C261.039 11.1867 259.906 12.0933 258.466 12.76C257.053 13.4267 255.493 13.76 253.786 13.76C253.679 13.76 253.106 13.72 252.066 13.64V22.76C252.066 23.5867 252.146 24.1867 252.306 24.56C252.493 24.9333 252.826 25.1867 253.306 25.32C253.786 25.4533 254.559 25.52 255.626 25.52C255.706 25.52 255.746 25.6 255.746 25.76C255.746 25.92 255.706 26 255.626 26C254.826 26 254.186 25.9867 253.706 25.96L250.986 25.92L248.346 25.96C247.866 25.9867 247.199 26 246.346 26C246.293 26 246.266 25.92 246.266 25.76C246.266 25.6 246.293 25.52 246.346 25.52C247.413 25.52 248.186 25.4533 248.666 25.32C249.173 25.1867 249.519 24.9333 249.706 24.56C249.893 24.16 249.986 23.56 249.986 22.76V4.24C249.986 3.44 249.893 2.85333 249.706 2.48C249.546 2.10667 249.213 1.85333 248.706 1.72C248.226 1.56 247.466 1.48 246.426 1.48C246.346 1.48 246.306 1.4 246.306 1.24C246.306 1.08 246.346 1 246.426 1L248.346 1.04C249.413 1.09333 250.293 1.12 250.986 1.12C251.573 1.12 252.133 1.10667 252.666 1.08C253.199 1.05333 253.679 1.02667 254.106 1C255.146 0.919999 256.039 0.879999 256.786 0.879999ZM260.866 7.28C260.866 5.2 260.346 3.70667 259.306 2.8C258.293 1.86667 256.786 1.4 254.786 1.4C253.773 1.4 253.066 1.58667 252.666 1.96C252.266 2.33333 252.066 3.12 252.066 4.32V12.72C252.839 12.8 253.639 12.84 254.466 12.84C256.786 12.84 258.426 12.3867 259.386 11.48C260.373 10.5467 260.866 9.14667 260.866 7.28ZM291.322 26C290.629 26 289.309 24.8667 287.362 22.6C285.442 20.3067 283.122 17.1467 280.402 13.12L282.322 12.52C284.669 15.8533 286.629 18.4533 288.202 20.32C289.775 22.16 291.162 23.4933 292.362 24.32C293.589 25.12 294.789 25.52 295.962 25.52C296.042 25.52 296.082 25.6 296.082 25.76C296.082 25.92 296.042 26 295.962 26H291.322ZM280.882 0.879999C282.882 0.879999 284.429 1.37333 285.522 2.36C286.642 3.32 287.202 4.6 287.202 6.2C287.202 7.58667 286.789 8.86667 285.962 10.04C285.162 11.1867 284.055 12.0933 282.642 12.76C281.255 13.4267 279.749 13.76 278.122 13.76C278.015 13.76 277.442 13.72 276.402 13.64V22.76C276.402 23.5867 276.482 24.1867 276.642 24.56C276.829 24.9333 277.162 25.1867 277.642 25.32C278.122 25.4533 278.895 25.52 279.962 25.52C280.042 25.52 280.082 25.6 280.082 25.76C280.082 25.92 280.042 26 279.962 26C279.162 26 278.522 25.9867 278.042 25.96L275.322 25.92L272.682 25.96C272.202 25.9867 271.535 26 270.682 26C270.629 26 270.602 25.92 270.602 25.76C270.602 25.6 270.629 25.52 270.682 25.52C271.749 25.52 272.522 25.4533 273.002 25.32C273.509 25.1867 273.855 24.9333 274.042 24.56C274.229 24.16 274.322 23.56 274.322 22.76V4.24C274.322 3.44 274.229 2.85333 274.042 2.48C273.882 2.10667 273.549 1.85333 273.042 1.72C272.562 1.56 271.802 1.48 270.762 1.48C270.682 1.48 270.642 1.4 270.642 1.24C270.642 1.08 270.682 1 270.762 1L272.682 1.04C273.749 1.09333 274.629 1.12 275.322 1.12C275.909 1.12 276.455 1.10667 276.962 1.08C277.495 1.05333 277.949 1.02667 278.322 1C279.282 0.919999 280.135 0.879999 280.882 0.879999ZM284.962 7.28C284.962 5.22667 284.455 3.73333 283.442 2.8C282.455 1.86667 281.015 1.4 279.122 1.4C278.109 1.4 277.402 1.58667 277.002 1.96C276.602 2.33333 276.402 3.12 276.402 4.32V12.72C277.175 12.8 277.975 12.84 278.802 12.84C281.015 12.84 282.589 12.3867 283.522 11.48C284.482 10.5467 284.962 9.14667 284.962 7.28ZM303.962 13.8H314.322L314.602 14.52H303.602L303.962 13.8ZM323.362 25.52C323.468 25.52 323.522 25.6 323.522 25.76C323.522 25.92 323.468 26 323.362 26C322.882 26 322.108 25.9733 321.042 25.92C320.028 25.8667 319.282 25.84 318.802 25.84C318.242 25.84 317.508 25.8667 316.602 25.92C315.748 25.9733 315.108 26 314.682 26C314.575 26 314.522 25.92 314.522 25.76C314.522 25.6 314.575 25.52 314.682 25.52C315.775 25.52 316.562 25.4267 317.042 25.24C317.522 25.0267 317.762 24.68 317.762 24.2C317.762 23.8267 317.615 23.3067 317.322 22.64L308.282 3.2L309.042 2.52L301.322 21.08C300.948 21.9867 300.762 22.7333 300.762 23.32C300.762 24.0933 301.082 24.6533 301.722 25C302.362 25.3467 303.362 25.52 304.722 25.52C304.855 25.52 304.922 25.6 304.922 25.76C304.922 25.92 304.855 26 304.722 26C304.242 26 303.548 25.9733 302.642 25.92C301.628 25.8667 300.748 25.84 300.002 25.84C299.335 25.84 298.548 25.8667 297.642 25.92C296.842 25.9733 296.188 26 295.682 26C295.548 26 295.482 25.92 295.482 25.76C295.482 25.6 295.548 25.52 295.682 25.52C296.428 25.52 297.055 25.3867 297.562 25.12C298.095 24.8533 298.588 24.3733 299.042 23.68C299.522 22.9867 300.028 22 300.562 20.72L308.922 0.599998C308.975 0.519999 309.055 0.48 309.162 0.48C309.295 0.48 309.375 0.519999 309.402 0.599998L318.682 20.52C319.295 21.88 319.842 22.92 320.322 23.64C320.802 24.3333 321.268 24.8267 321.722 25.12C322.202 25.3867 322.748 25.52 323.362 25.52Z" fill="black"/>
</svg>
